<svg width="92" height="78" viewBox="20 0 92 78" fill="none" xmlns="http://www.w3.org/2000/svg">
<path d="M57.682 69.8396C57.6772 71.2259 56.2977 72.1869 54.9956 71.7111L23.7214 60.2821C21.6211 59.5146 22.1718 56.4037 24.4079 56.4037L45.3129 56.4037C46.2703 56.4037 47.0935 55.7251 47.2762 54.7853L53.8895 20.7677C54.3525 18.3858 57.8612 18.7299 57.8527 21.1563L57.682 69.8396Z" fill="#1265FF"/>
<path d="M62.1346 23.7278C62.1649 21.841 64.5515 21.0421 65.7117 22.5304L95.7414 61.053C96.9545 62.6092 95.42 64.7957 93.5441 64.1841L71.5227 57.004C70.4443 56.6523 69.2897 57.267 68.9792 58.3579L65.3028 71.2745C64.6625 73.5244 61.3419 73.0338 61.3795 70.6948L62.1346 23.7278Z" fill="#1265FF"/>
</svg>
